<svg width="164" height="164" viewBox="0 0 164 164" fill="none" xmlns="http://www.w3.org/2000/svg">
<g transform="translate(15.3335, 0)">
<rect x="21.3333" width="90.6667" height="40" rx="8.20513" fill="#252930"/>
<rect x="10.6667" y="8" width="112" height="133.333" rx="8.20513" fill="#373C46"/>
<rect y="18.6667" width="133.333" height="133.333" rx="8.20513" fill="url(#paint0_linear_guestbook_empty)"/>
<path fill-rule="evenodd" clip-rule="evenodd" d="M78.173 34.6667C86.1777 34.6668 92.6666 41.1557 92.6667 49.1597C92.6666 52.7974 91.326 56.1222 89.1121 58.667C91.3259 61.2118 92.6667 64.5366 92.6667 68.1743C92.6663 76.178 86.1774 82.6665 78.173 82.6667C74.5357 82.6667 71.2115 81.3265 68.6667 79.1136C66.1219 81.3264 62.7981 82.6666 59.1609 82.6667C51.1563 82.6667 44.6669 76.1781 44.6667 68.1743C44.6667 64.5366 46.0073 61.2118 48.2212 58.667C46.0073 56.1222 44.6667 52.7975 44.6667 49.1597C44.6668 41.1557 51.1557 34.6668 59.1603 34.6667C62.7975 34.6667 66.1218 36.0064 68.6667 38.2192C71.2115 36.0063 74.5358 34.6667 78.173 34.6667ZM77.9181 49.3958C77.6212 49.108 77.1589 49.1206 76.8264 49.3665C74.5344 51.0619 71.6943 52.0652 68.6186 52.0653C65.6001 52.0653 62.8084 51.0989 60.5391 49.4602C60.1892 49.2075 59.706 49.2005 59.4041 49.5089C59.106 49.8135 59.1179 50.29 59.3689 50.6344C61.0134 52.8909 61.9835 55.6655 61.9836 58.6658C61.9835 61.6667 61.0128 64.4421 59.3677 66.6989C59.117 67.0431 59.1047 67.5186 59.4023 67.8233C59.704 68.1321 60.1873 68.1258 60.5374 67.8731C62.807 66.2335 65.5993 65.2657 68.6186 65.2657C71.6951 65.2658 74.5358 66.2699 76.8282 67.9663C77.1607 68.2123 77.6231 68.2251 77.9199 67.937C78.2237 67.6419 78.2149 67.1666 77.9615 66.8272C76.259 64.5477 75.2513 61.7238 75.2513 58.6658C75.2514 55.6084 76.2585 52.7848 77.9603 50.5055C78.2137 50.1661 78.2223 49.6907 77.9181 49.3958Z" fill="url(#paint1_linear_guestbook_empty)"/>
</g>
<g transform="translate(2, 74.5)">
<path d="M157.615 68.204C157.229 79.2471 148.165 88 137.115 88H22.885C11.8351 88 2.77088 79.2472 2.38475 68.204L0.296918 8.49185C0.13464 3.85072 3.85307 0 8.49704 0H36.1513C39.7381 0 42.9092 2.32974 43.9814 5.75255L45.6271 11.0065C47.7713 17.8522 54.1135 22.5116 61.2871 22.5116H99.7386C106.912 22.5116 113.254 17.8521 115.399 11.0065L117.044 5.75254C118.116 2.32974 121.288 0 124.874 0H151.503C156.147 0 159.865 3.85071 159.703 8.49185L157.615 68.204Z" fill="url(#paint2_linear_guestbook_empty)"/>
<rect x="50" y="38" width="64" height="10" rx="5" fill="#414855"/>
</g>
<defs>
<linearGradient id="paint0_linear_guestbook_empty" x1="66.6667" y1="18.6667" x2="66.6667" y2="106" gradientUnits="userSpaceOnUse">
<stop stop-color="#5C6472"/>
<stop offset="1" stop-color="#414855"/>
</linearGradient>
<linearGradient id="paint1_linear_guestbook_empty" x1="68.6667" y1="34.6667" x2="68.6667" y2="82.6667" gradientUnits="userSpaceOnUse">
<stop stop-color="#252930"/>
<stop offset="1" stop-color="#1B1D1F"/>
</linearGradient>
<linearGradient id="paint2_linear_guestbook_empty" x1="80" y1="0" x2="80" y2="88" gradientUnits="userSpaceOnUse">
<stop stop-color="#2C3139"/>
<stop offset="1" stop-color="#21252B"/>
</linearGradient>
</defs>
</svg>
