<svg width="149" height="149" viewBox="0 0 149 149" fill="none" xmlns="http://www.w3.org/2000/svg">
<path d="M112.629 137.466C118.546 137.466 123.058 132.17 122.118 126.327C121.168 120.424 115.115 116.811 109.468 118.777L90.4264 125.407C87.5559 126.406 85.8326 129.339 86.3566 132.333C86.8759 135.3 89.4528 137.466 92.4655 137.466L112.629 137.466Z" fill="url(#paint0_linear_1304_11243)"/>
<path d="M37.0197 137.466C31.1023 137.466 26.5904 132.17 27.5305 126.328C28.4805 120.424 34.5329 116.812 40.1798 118.778L59.2219 125.407C62.0925 126.407 63.8157 129.339 63.2917 132.333C62.7724 135.301 60.1955 137.466 57.1828 137.466L37.0197 137.466Z" fill="url(#paint1_linear_1304_11243)"/>
<g filter="url(#filter0_d_1304_11243)">
<circle cx="74.3511" cy="100.751" r="35.951" fill="url(#paint2_linear_1304_11243)"/>
</g>
<rect x="63.4557" y="77.7598" width="4.9248" height="14.7744" rx="2.4624" fill="url(#paint3_linear_1304_11243)"/>
<rect x="80.2013" y="77.7598" width="4.9248" height="14.7744" rx="2.4624" fill="url(#paint4_linear_1304_11243)"/>
<path d="M88.1279 100.187C88.1279 100.187 85.5266 106.907 74.6879 106.907C63.8492 106.907 61.2479 100.187 61.2479 100.187" stroke="url(#paint5_linear_1304_11243)" stroke-width="3.84" stroke-linecap="round"/>
<rect x="83.3279" y="80.4482" width="3.84" height="3.84" rx="1.92" fill="white"/>
<rect x="66.048" y="80.4482" width="3.84" height="3.84" rx="1.92" fill="white"/>
<defs>
<filter id="filter0_d_1304_11243" x="2.28882e-05" y="-0.000196457" width="148.702" height="148.702" filterUnits="userSpaceOnUse" color-interpolation-filters="sRGB">
<feFlood flood-opacity="0" result="BackgroundImageFix"/>
<feColorMatrix in="SourceAlpha" type="matrix" values="0 0 0 0 0 0 0 0 0 0 0 0 0 0 0 0 0 0 127 0" result="hardAlpha"/>
<feOffset dy="-26.4"/>
<feGaussianBlur stdDeviation="19.2"/>
<feComposite in2="hardAlpha" operator="out"/>
<feColorMatrix type="matrix" values="0 0 0 0 1 0 0 0 0 1 0 0 0 0 1 0 0 0 0.5 0"/>
<feBlend mode="normal" in2="BackgroundImageFix" result="effect1_dropShadow_1304_11243"/>
<feBlend mode="normal" in="SourceGraphic" in2="effect1_dropShadow_1304_11243" result="shape"/>
</filter>
<linearGradient id="paint0_linear_1304_11243" x1="121.002" y1="126.214" x2="86.5356" y2="131.777" gradientUnits="userSpaceOnUse">
<stop stop-color="#B9B9E9"/>
<stop offset="1" stop-color="#7C75AD"/>
</linearGradient>
<linearGradient id="paint1_linear_1304_11243" x1="28.6462" y1="126.215" x2="63.1127" y2="131.777" gradientUnits="userSpaceOnUse">
<stop stop-color="#B9B9E9"/>
<stop offset="1" stop-color="#7C75AD"/>
</linearGradient>
<linearGradient id="paint2_linear_1304_11243" x1="74.3511" y1="64.7998" x2="74.3511" y2="136.702" gradientUnits="userSpaceOnUse">
<stop offset="0.122808" stop-color="#EEF4FA"/>
<stop offset="1" stop-color="#CBC6F1"/>
</linearGradient>
<linearGradient id="paint3_linear_1304_11243" x1="65.9181" y1="77.7598" x2="65.9181" y2="92.5342" gradientUnits="userSpaceOnUse">
<stop stop-color="#252930" stop-opacity="0.26"/>
<stop offset="0.456731" stop-color="#252930"/>
</linearGradient>
<linearGradient id="paint4_linear_1304_11243" x1="82.6637" y1="77.7598" x2="82.6637" y2="92.5342" gradientUnits="userSpaceOnUse">
<stop stop-color="#252930" stop-opacity="0.26"/>
<stop offset="0.456731" stop-color="#252930"/>
</linearGradient>
<linearGradient id="paint5_linear_1304_11243" x1="74.6879" y1="101.088" x2="74.6879" y2="105.888" gradientUnits="userSpaceOnUse">
<stop stop-color="#252930" stop-opacity="0.75"/>
<stop offset="1" stop-color="#252930"/>
</linearGradient>
</defs>
</svg>
