<svg width="29" height="29" viewBox="0 0 29 29" fill="none" xmlns="http://www.w3.org/2000/svg">
<path d="M19.1168 6.25204C19.3552 6.01361 19.6383 5.82448 19.9498 5.69545C20.2613 5.56641 20.5952 5.5 20.9324 5.5C21.2696 5.5 21.6035 5.56641 21.915 5.69545C22.2265 5.82448 22.5095 6.01361 22.748 6.25204C22.9864 6.49046 23.1755 6.77351 23.3046 7.08503C23.4336 7.39655 23.5 7.73043 23.5 8.06761C23.5 8.40479 23.4336 8.73868 23.3046 9.05019C23.1755 9.36171 22.9864 9.64476 22.748 9.88319L10.7745 21.8566C10.5899 22.0412 10.3604 22.1744 10.1085 22.2431L6.34417 23.2698C5.97092 23.3716 5.62843 23.0291 5.73023 22.6558L6.75687 18.8915C6.82555 18.6396 6.95877 18.4101 7.14336 18.2255L19.1168 6.25204Z" fill="#6D7684" stroke="#6D7684" stroke-width="1.5" stroke-linecap="round" stroke-linejoin="round"/>
</svg>
