<svg width="13" height="17" viewBox="0 0 13 17" fill="none" xmlns="http://www.w3.org/2000/svg">
<path d="M9.68694 13.1037C10.1198 11.4881 10.4841 10.058 9.20975 8.79549L10.4102 4.31529L10.8254 4.42654C11.1557 4.51505 11.5061 4.47465 11.7994 4.31423C12.0927 4.15381 12.305 3.88651 12.3895 3.57114C12.474 3.25576 12.4238 2.91814 12.25 2.63254C12.0762 2.34695 11.793 2.13678 11.4626 2.04827L3.9896 0.0458743C3.65927 -0.0426371 3.3089 -0.00223984 3.01557 0.158179C2.72224 0.318598 2.50997 0.585897 2.42547 0.901275C2.34096 1.21665 2.39114 1.55427 2.56497 1.83987C2.73879 2.12546 3.02202 2.33563 3.35235 2.42414L3.76752 2.53539L2.56705 7.01559C0.832217 7.47179 0.432576 8.89241 -0.000332905 10.5081L4.01297 11.5834C4.01297 11.5834 2.42913 16.7148 3.45435 16.9896C4.47957 17.2643 5.67364 12.0284 5.67364 12.0284L9.68694 13.1037Z" fill="#111111"/>
</svg>
