<svg width="20" height="20" viewBox="0 0 20 20" fill="none" xmlns="http://www.w3.org/2000/svg">
<path d="M16.4298 16.4289L13.3277 13.3268M13.3277 13.3268C13.8583 12.7962 14.2792 12.1662 14.5664 11.4729C14.8536 10.7796 15.0014 10.0366 15.0014 9.28615C15.0014 8.53572 14.8536 7.79265 14.5664 7.09935C14.2792 6.40605 13.8583 5.77611 13.3277 5.24548C12.797 4.71485 12.1671 4.29393 11.4738 4.00676C10.7805 3.71958 10.0374 3.57178 9.287 3.57178C8.53658 3.57178 7.7935 3.71958 7.10021 4.00676C6.40691 4.29393 5.77696 4.71485 5.24633 5.24548C4.17468 6.31713 3.57263 7.7706 3.57263 9.28615C3.57263 10.8017 4.17468 12.2552 5.24633 13.3268C6.31798 14.3985 7.77145 15.0005 9.287 15.0005C10.8025 15.0005 12.256 14.3985 13.3277 13.3268Z" stroke="white" stroke-width="1.5" stroke-linecap="round" stroke-linejoin="round"/>
</svg>
