<svg width="24" height="24" viewBox="0 0 24 24" fill="none" xmlns="http://www.w3.org/2000/svg">
<path d="M16.7529 0C20.755 0.000156699 24 3.24496 24 7.24707C23.9999 9.06638 23.3272 10.7275 22.2197 12C23.3271 13.2726 23.9999 14.9337 24 16.7529C23.9998 20.7549 20.7549 23.9989 16.7529 23.999C14.9338 23.9989 13.2724 23.3269 12 22.2197C10.7276 23.327 9.06633 23.999 7.24707 23.999C3.2451 23.9989 0.000163104 20.7549 0 16.7529C5.99842e-05 14.9336 0.67187 13.2716 1.7793 11.999C0.672174 10.7264 1.87431e-05 9.06516 0 7.24609C0.000191571 3.24414 3.24511 0.000156669 7.24707 0C9.06633 6.2858e-05 10.7276 0.672062 12 1.7793C13.2724 0.672075 14.9338 5.43685e-05 16.7529 0ZM17.2832 6.69238C17.1376 6.562 16.9215 6.61583 16.7812 6.75195C15.5406 7.95582 13.8454 8.69818 11.9756 8.69824C10.1321 8.6981 8.45921 7.97594 7.22363 6.80176C7.0719 6.65761 6.83564 6.61034 6.69531 6.76562C6.56418 6.91123 6.61727 7.12796 6.75293 7.26953C7.9332 8.49884 8.65898 10.1638 8.65918 11.998C8.65917 13.8325 7.93333 15.4972 6.75293 16.7266C6.61707 16.8681 6.56423 17.0845 6.69531 17.2305C6.8354 17.3863 7.07075 17.3387 7.22266 17.1943C8.45829 16.0197 10.1319 15.297 11.9756 15.2969C13.8458 15.2969 15.5424 16.0396 16.7832 17.2441C16.9237 17.3805 17.1396 17.4345 17.2852 17.3037C17.4417 17.1627 17.3924 16.9251 17.2451 16.7744C16.0377 15.5406 15.292 13.8561 15.292 11.998C15.2922 10.1407 16.0364 8.45639 17.2432 7.22266C17.3909 7.07163 17.4406 6.83336 17.2832 6.69238Z" fill="url(#paint0_linear_1389_28642)"/>
<defs>
<linearGradient id="paint0_linear_1389_28642" x1="12" y1="0" x2="12" y2="23.999" gradientUnits="userSpaceOnUse">
<stop stop-color="#665BE1"/>
<stop offset="1" stop-color="#5647FF"/>
</linearGradient>
</defs>
</svg>
